<svg width="1280" height="640" viewBox="0 0 1280 640" fill="none" xmlns="http://www.w3.org/2000/svg">
  <rect width="1280" height="640" rx="32" fill="#0B1020"/>
  <rect x="24" y="24" width="1232" height="592" rx="24" fill="url(#panel)"/>
  <circle cx="178" cy="164" r="94" fill="url(#orb1)" fill-opacity="0.9"/>
  <circle cx="1088" cy="470" r="126" fill="url(#orb2)" fill-opacity="0.75"/>
  <circle cx="960" cy="150" r="42" fill="#7C3AED" fill-opacity="0.28"/>
  <circle cx="1028" cy="208" r="18" fill="#22C55E" fill-opacity="0.85"/>
  <circle cx="1064" cy="168" r="12" fill="#F59E0B" fill-opacity="0.9"/>
  <circle cx="1100" cy="222" r="9" fill="#38BDF8" fill-opacity="0.95"/>

  <rect x="98" y="102" width="160" height="160" rx="34" fill="#10182F" stroke="#3B82F6" stroke-opacity="0.32" stroke-width="2"/>
  <path d="M154 150C154 140.059 162.059 132 172 132H184C193.941 132 202 140.059 202 150V176H154V150Z" fill="#8B5CF6"/>
  <path d="M136 210C136 197.85 145.85 188 158 188H198C210.15 188 220 197.85 220 210V228H136V210Z" fill="#38BDF8"/>
  <path d="M210 184L240 154" stroke="#22C55E" stroke-width="10" stroke-linecap="round"/>
  <path d="M208 208L248 208" stroke="#F59E0B" stroke-width="10" stroke-linecap="round"/>
  <path d="M96 300H1184" stroke="white" stroke-opacity="0.08" stroke-width="2"/>

  <text x="330" y="186" fill="white" font-family="Segoe UI, Arial, sans-serif" font-size="64" font-weight="700">
    NeuralVision AI
  </text>
  <text x="332" y="240" fill="#A5B4FC" font-family="Segoe UI, Arial, sans-serif" font-size="26" font-weight="600">
    Local video action recognition, explainability, evaluation, and Training Lab
  </text>
  <text x="332" y="308" fill="#CBD5E1" font-family="Segoe UI, Arial, sans-serif" font-size="24">
    SlowFast + FastAPI + React + confidence-aware inference + custom pilot training
  </text>

  <rect x="332" y="360" width="204" height="52" rx="26" fill="#111827" stroke="#A78BFA" stroke-opacity="0.65"/>
  <text x="371" y="393" fill="#F8FAFC" font-family="Segoe UI, Arial, sans-serif" font-size="22" font-weight="600">
    Analysis Workspace
  </text>

  <rect x="556" y="360" width="176" height="52" rx="26" fill="#111827" stroke="#38BDF8" stroke-opacity="0.65"/>
  <text x="603" y="393" fill="#F8FAFC" font-family="Segoe UI, Arial, sans-serif" font-size="22" font-weight="600">
    Chat + Review
  </text>

  <rect x="752" y="360" width="174" height="52" rx="26" fill="#111827" stroke="#22C55E" stroke-opacity="0.65"/>
  <text x="791" y="393" fill="#F8FAFC" font-family="Segoe UI, Arial, sans-serif" font-size="22" font-weight="600">
    Training Lab
  </text>

  <rect x="332" y="454" width="612" height="78" rx="18" fill="#0F172A" stroke="white" stroke-opacity="0.08"/>
  <text x="362" y="489" fill="#F8FAFC" font-family="Segoe UI, Arial, sans-serif" font-size="24" font-weight="600">
    Built as a complete local ML workflow
  </text>
  <text x="362" y="521" fill="#94A3B8" font-family="Segoe UI, Arial, sans-serif" font-size="20">
    Inference, explainability, evaluation, labeling, exports, and iterative model improvement
  </text>

  <defs>
    <linearGradient id="panel" x1="64" y1="48" x2="1190" y2="600" gradientUnits="userSpaceOnUse">
      <stop stop-color="#0F172A"/>
      <stop offset="1" stop-color="#111827"/>
    </linearGradient>
    <radialGradient id="orb1" cx="0" cy="0" r="1" gradientUnits="userSpaceOnUse" gradientTransform="translate(178 164) rotate(90) scale(94)">
      <stop stop-color="#3B82F6"/>
      <stop offset="1" stop-color="#3B82F6" stop-opacity="0"/>
    </radialGradient>
    <radialGradient id="orb2" cx="0" cy="0" r="1" gradientUnits="userSpaceOnUse" gradientTransform="translate(1088 470) rotate(90) scale(126)">
      <stop stop-color="#8B5CF6"/>
      <stop offset="1" stop-color="#8B5CF6" stop-opacity="0"/>
    </radialGradient>
  </defs>
</svg>
